<?xml version="1.0" standalone="no"?><!DOCTYPE svg PUBLIC "-//W3C//DTD SVG 1.1//EN" "http://www.w3.org/Graphics/SVG/1.1/DTD/svg11.dtd"><svg t="1724833758797" class="icon" viewBox="0 0 1028 1024" version="1.1" xmlns="http://www.w3.org/2000/svg" p-id="6910" width="48.1875" height="48" xmlns:xlink="http://www.w3.org/1999/xlink"><path d="M7.856789 602.079857c158.044987 2.617399 316.007318 3.788341 473.882404 3.512825A56865.980269 56865.980269 0 0 1 482.519821 2.805668 3854.340592 3854.340592 0 0 0 15.975318 25.710206a3762.015283 3762.015283 0 0 0-8.118529 576.369651zM54.308735 1002.280179a3557.0913 3557.0913 0 0 0 430.653991 21.141238c-1.322475-115.702816-2.291372-231.506655-2.897506-347.406924-156.378117 0.518888-312.834296-1.653094-469.377722-6.520538a3835.297865 3835.297865 0 0 0 41.621237 332.786224zM543.62461 1022.250475c143.557453-4.059265 287.105722-16.843193 430.658583-38.360968 30.269991-177.17496 47.498906-354.267265 51.686744-531.276915a27595.367318 27595.367318 0 0 0-479.314654-6.088897c-0.298475 192.167605-1.304108 384.078063-3.030673 575.72678zM546.072108 4.07304c0.514296 124.147372 0.734709 248.18913 0.656645 372.120682 160.152682 1.235229 320.213525 5.115408 480.191713 11.649722a3611.202583 3611.202583 0 0 0-14.303856-342.218045C857.097184 22.316771 701.58235 8.467516 546.072108 4.07304z" fill="#1296db" p-id="6911"></path></svg>