<?xml version="1.0" standalone="no"?><!DOCTYPE svg PUBLIC "-//W3C//DTD SVG 1.1//EN" "http://www.w3.org/Graphics/SVG/1.1/DTD/svg11.dtd"><svg t="1725244498800" class="icon" viewBox="0 0 1024 1024" version="1.1" xmlns="http://www.w3.org/2000/svg" p-id="11299" xmlns:xlink="http://www.w3.org/1999/xlink" width="16" height="16"><path d="M734.8 767.8c-17.7 0-32-14.3-32-32V364.9L537.4 531.7c-6.3 6.4-14.8 9.9-23.8 9.9h-0.1c-8.9 0-17.4-3.5-23.7-9.8L319.2 362v373.8c0 17.7-14.3 32-32 32s-32-14.3-32-32V289.5c0-13.7 7.9-26.3 20.6-31.6 12.6-5.3 27.1-2.5 36.7 7.1l200.9 200 195.9-197.7c9.6-9.7 24-12.6 36.7-7.4a33.55 33.55 0 0 1 20.8 31.1v444.8c0 17.7-14.4 32-32 32z" p-id="11300" fill="#ffffff"></path><path d="M896 959.7H128.1C92.8 959.7 64 931 64 895.6V128.7c0-35.3 28.7-64.1 64.1-64.1H896c35.3 0 64.1 28.7 64.1 64.1v766.8c-0.1 35.4-28.8 64.2-64.1 64.2z m0-831H128.1s-0.1 0-0.1 0.1v766.9s0 0.1 0.1 0.1h768v-0.1l-0.1-767z" p-id="11301" fill="#ffffff"></path></svg>