<?xml version="1.0" standalone="no"?><!DOCTYPE svg PUBLIC "-//W3C//DTD SVG 1.1//EN" "http://www.w3.org/Graphics/SVG/1.1/DTD/svg11.dtd"><svg t="1725242603979" class="icon" viewBox="0 0 1024 1024" version="1.1" xmlns="http://www.w3.org/2000/svg" p-id="5415" xmlns:xlink="http://www.w3.org/1999/xlink" width="16" height="16"><path d="M512 979.05281824a30.53118723 30.53118723 0 0 1-24.31740354-11.94958406c-10.51563396-13.86151749-258.23051123-340.5631453-290.9723715-473.62176363a324.67019852 324.67019852 0 1 1 630.57955008 0c-32.74186029 133.05861835-280.51648547 460.05898576-291.03211943 473.68151155a30.53118723 30.53118723 0 0 1-24.25765561 11.88983614z m0-827.26970349a263.96631157 263.96631157 0 0 0-255.96009026 327.06011534C278.20638815 569.18208547 430.92207226 787.97896934 512 897.79564672c81.13767567-109.75692945 233.85335978-328.61356125 256.0795861-418.95241663A263.90656365 263.90656365 0 0 0 512 151.78311475z" fill="#ffffff" p-id="5416"></path><path d="M512 573.78267532a158.27224068 158.27224068 0 1 1 158.3319886-158.27224068 158.39173652 158.39173652 0 0 1-158.3319886 158.27224068zM512 318.24082051a97.26961413 97.26961413 0 1 0 97.20986621 97.20986621A97.32936205 97.32936205 0 0 0 512 318.24082051z" fill="#ffffff" p-id="5417"></path></svg>